
<svg width="69px" height="19px" viewBox="0 0 69 19" version="1.1" xmlns="http://www.w3.org/2000/svg" xmlns:xlink="http://www.w3.org/1999/xlink">
    <g id="Page-1" stroke="none" stroke-width="1" fill="none" fill-rule="evenodd">
        <g id="Artboard" transform="translate(-12.000000, -31.000000)" fill="#AEAFB0" fill-rule="nonzero">
            <g id="GitHub_logo_2013_padded" transform="translate(12.000000, 31.000000)">
                <g id="g3018">
                    <path d="M13.2718972,7.8438194 L7.48135089,7.8438194 C7.33198389,7.8438194 7.21081095,7.96303952 7.21081095,8.11004768 L7.21081095,10.8941707 C7.21081095,11.0410637 7.33198389,11.16068 7.48135089,11.16068 L9.74027813,11.16068 L9.74027813,14.6197342 C9.74027813,14.6197342 9.23297671,14.7897847 7.83081974,14.7897847 C6.1764337,14.7897847 3.86539072,14.1952566 3.86539072,9.19751882 C3.86539072,4.19865558 6.27182082,3.54095191 8.53113604,3.54095191 C10.4867814,3.54095191 11.3293628,3.87961129 11.8654632,4.04273168 C12.0338849,4.09353041 12.1897087,3.92857562 12.1897087,3.7815415 L12.8356594,1.09146617 C12.8356594,1.02274677 12.8120132,0.93991661 12.732251,0.883614676 C12.5145143,0.73093738 11.1862666,-1.12886082e-06 7.83081744,-1.12886082e-06 C3.96515353,-1.12886082e-06 -3.44361963e-06,1.61737421 -3.44361963e-06,9.39241777 C-3.44361963e-06,17.1677243 4.53976508,18.326351 8.36541069,18.326351 C11.5329243,18.326351 13.454549,16.9951441 13.454549,16.9951441 C13.5337511,16.952095 13.5422615,16.8432796 13.5422615,16.7933456 L13.5422615,8.11004881 C13.5422615,7.96304291 13.4212619,7.84382053 13.2718937,7.84382053" id="path3024"></path>
                    <path d="M43.1134004,0.93159239 C43.1134004,0.783429408 42.9940204,0.663911269 42.8446546,0.663911269 L39.5842642,0.663911269 C39.4353253,0.663911269 39.3142259,0.783429408 39.3142259,0.93159239 C39.3142259,0.932299057 39.3150879,7.12798054 39.3150879,7.12798054 L34.2330239,7.12798054 L34.2330239,0.93159239 C34.2330239,0.783429408 34.11307,0.663911269 33.9639911,0.663911269 L30.7037442,0.663911269 C30.5553805,0.663911269 30.4344245,0.783429408 30.4344245,0.93159239 L30.4344245,17.7097186 C30.4344245,17.8577179 30.5553805,17.9782069 30.7037442,17.9782069 L33.9639911,17.9782069 C34.11307,17.9782069 34.2330239,17.8577157 34.2330239,17.7097186 L34.2330239,10.5331328 L39.3150879,10.5331328 C39.3150879,10.5331328 39.3061907,17.7091678 39.3061907,17.7097186 C39.3061907,17.8577179 39.4271502,17.9782069 39.5762291,17.9782069 L42.8443676,17.9782069 C42.9937334,17.9782069 43.1131134,17.8577157 43.1134004,17.7097186 L43.1134004,0.93159239" id="path3026"></path>
                    <path d="M19.4243105,3.13329431 C19.4243105,1.97875303 18.4830544,1.04574957 17.3218372,1.04574957 C16.1617678,1.04574957 15.2197944,1.97875303 15.2197944,3.13329431 C15.2197944,4.28663673 16.1617678,5.22213836 17.3218372,5.22213836 C18.4830556,5.22213836 19.4243105,4.28663786 19.4243105,3.13329431" id="path3028"></path>
                    <path d="M19.1911487,14.1704487 C19.1911487,13.7405785 19.1911487,6.4256293 19.1911487,6.4256293 C19.1911487,6.27856696 19.0704786,6.15835908 18.9213974,6.15835908 L15.6713379,6.15835908 C15.522259,6.15835908 15.3888164,6.30959821 15.3888164,6.45660411 C15.3888164,6.45660411 15.3888164,15.7761121 15.3888164,17.5526298 C15.3888164,17.8787723 15.5954324,17.9756737 15.8628869,17.9756737 C15.8628869,17.9756737 17.2500905,17.9756737 18.7911103,17.9756737 C19.1123713,17.9756737 19.1911441,17.8206225 19.1911441,17.5474472 C19.1911441,16.9526436 19.1911441,14.6227144 19.1911441,14.1704487" id="path3030"></path>
                    <path d="M55.5042624,6.18360267 L52.2688382,6.18360267 C52.1204745,6.18360267 51.999662,6.30386924 51.999662,6.45186177 L51.999662,14.6787183 C51.999662,14.6787183 51.1777848,15.2701003 50.011114,15.2701003 C48.8445901,15.2701003 48.5349502,14.7495543 48.5349502,13.6261945 C48.5349502,12.5014675 48.5349502,6.45185951 48.5349502,6.45185951 C48.5349502,6.30386586 48.4144212,6.18359928 48.2659174,6.18359928 L44.9822814,6.18359928 C44.8340646,6.18359928 44.7126747,6.30386586 44.7126747,6.45185951 C44.7126747,6.45185951 44.7126747,10.8329819 44.7126747,14.1694565 C44.7126747,17.5061049 46.6036523,18.3223774 49.2050212,18.3223774 C51.3390609,18.3223774 53.0597217,17.1629233 53.0597217,17.1629233 C53.0597217,17.1629233 53.1416546,17.7739316 53.1786701,17.8464147 C53.2158336,17.9186776 53.3123985,17.9916562 53.4167115,17.9916562 L55.5056984,17.9826151 C55.6539152,17.9826151 55.7753016,17.8621239 55.7753016,17.7147861 L55.7742995,6.45185838 C55.7742995,6.30386473 55.6533401,6.18359928 55.5042612,6.18359928" id="path3032"></path>
                    <path d="M63.0708968,15.259953 C61.9487072,15.2263423 61.1875273,14.7255649 61.1875273,14.7255649 L61.1875273,9.4122575 C61.1875273,9.4122575 61.938521,8.95961253 62.8598328,8.87870256 C64.0249264,8.77605976 65.1475429,9.12216962 65.1475429,11.8554656 C65.1475429,14.7377002 64.6408992,15.3064767 63.0708968,15.2599541 L63.0708968,15.259953 Z M64.3470437,5.80668959 C62.5094445,5.80668959 61.2595494,6.6129773 61.2595494,6.6129773 L61.2595494,0.931590132 C61.2595494,0.78342715 61.1391708,0.663909011 60.9905166,0.663909011 L57.720949,0.663909011 C57.5722983,0.663909011 57.4514858,0.78342715 57.4514858,0.931590132 L57.4514858,17.7097175 C57.4514858,17.8577168 57.5722983,17.9782058 57.7213772,17.9782058 C57.7216642,17.9782058 59.9891488,17.9782058 59.9898628,17.9782058 C60.0920246,17.9782058 60.169358,17.9264498 60.2264716,17.8357221 C60.2828563,17.7455453 60.3642106,17.0621657 60.3642106,17.0621657 C60.3642106,17.0621657 61.7011982,18.3081582 64.2321175,18.3081582 C67.2033884,18.3081582 68.9074028,16.8259222 68.9074028,11.6542722 C68.9074028,6.48250808 66.18594,5.80668846 64.3470448,5.80668846 L64.3470437,5.80668959 Z" id="path3034"></path>
                    <path d="M28.5616659,6.15686221 L26.1159808,6.15686221 C26.1159808,6.15686221 26.1122502,2.98005032 26.1122502,2.97934591 C26.1122502,2.85912224 26.0492607,2.7990104 25.9079288,2.7990104 L22.5750789,2.7990104 C22.4455128,2.7990104 22.3759229,2.85503012 22.3759229,2.97751151 L22.3759229,6.26104252 C22.3759229,6.26104252 20.7057674,6.65758311 20.5928465,6.68960099 C20.4803538,6.72168885 20.3975646,6.82365321 20.3975646,6.94535908 L20.3975646,9.00873378 C20.3975646,9.15710899 20.5180913,9.27678178 20.6671713,9.27678178 L22.3759218,9.27678178 C22.3759218,9.27678178 22.3759218,11.434895 22.3759218,14.240735 C22.3759218,17.927722 25.0056982,18.2899723 26.7803125,18.2899723 C27.5911402,18.2899723 28.5610943,18.033827 28.7212214,17.975676 C28.8180732,17.9406779 28.8743213,17.8420663 28.8743213,17.735135 L28.8770464,15.465225 C28.8770464,15.3172325 28.7499183,15.1974615 28.6067211,15.1974615 C28.4642425,15.1974615 28.0996481,15.2544543 27.7242935,15.2544543 C26.5230442,15.2544543 26.1159797,14.7051246 26.1159797,13.9941229 C26.1159797,13.2836315 26.1158362,9.27678291 26.1158362,9.27678291 L28.5616682,9.27678291 C28.7107505,9.27678291 28.8314195,9.15710899 28.8314195,9.00873491 L28.8314195,6.42420806 C28.8314195,6.27608685 28.7107505,6.1568656 28.5616682,6.1568656" id="path3036"></path>
                </g>
            </g>
        </g>
    </g>
</svg>